HIERARCHY
ROOT Hips
{
	OFFSET -0.001795 -0.223333 0.028219
	CHANNELS 6 Xposition Yposition Zposition Zrotation Yrotation Xrotation 
	JOINT LeftUpLeg
	{
		OFFSET 0.069520 -0.091406 -0.006815
		CHANNELS 3 Zrotation Yrotation Xrotation
		JOINT LeftLeg
		{
			OFFSET 0.034277 -0.375199 -0.004496
			CHANNELS 3 Zrotation Yrotation Xrotation
			JOINT LeftFoot
			{
				OFFSET -0.013596 -0.397961 -0.043693
				CHANNELS 3 Zrotation Yrotation Xrotation
				JOINT LeftToe
				{
					OFFSET 0.026358 -0.055791 0.119288
					CHANNELS 3 Zrotation Yrotation Xrotation
					End Site
					{
						OFFSET 0.000000 0.000000 0.000000
					}
				}
			}
		}
	}
	JOINT RightUpLeg
	{
		OFFSET -0.067670 -0.090522 -0.004320
		CHANNELS 3 Zrotation Yrotation Xrotation
		JOINT RightLeg
		{
			OFFSET -0.038290 -0.382569 -0.008850
			CHANNELS 3 Zrotation Yrotation Xrotation
			JOINT RightFoot
			{
				OFFSET 0.015774 -0.398415 -0.042312
				CHANNELS 3 Zrotation Yrotation Xrotation
				JOINT RightToe
				{
					OFFSET -0.025372 -0.048144 0.123348
					CHANNELS 3 Zrotation Yrotation Xrotation
					End Site
					{
						OFFSET 0.000000 0.000000 0.000000
					}
				}
			}
		}
	}
	JOINT Spine
	{
		OFFSET -0.002533 0.108963 -0.026696
		CHANNELS 3 Zrotation Yrotation Xrotation
		JOINT Spine1
		{
			OFFSET 0.005487 0.135180 0.001092
			CHANNELS 3 Zrotation Yrotation Xrotation
			JOINT Spine2
			{
				OFFSET 0.001457 0.052922 0.025425
				CHANNELS 3 Zrotation Yrotation Xrotation
				JOINT Neck
				{
					OFFSET -0.002778 0.213870 -0.042857
					CHANNELS 3 Zrotation Yrotation Xrotation
					JOINT Head
					{
						OFFSET 0.005152 0.064970 0.051349
						CHANNELS 3 Zrotation Yrotation Xrotation
						End Site
						{
							OFFSET 0.000000 0.000000 0.000000
						}
					}
				}
				JOINT LeftShoulder
				{
					OFFSET 0.078845 0.121749 -0.034090
					CHANNELS 3 Zrotation Yrotation Xrotation
					JOINT LeftArm
					{
						OFFSET 0.090977 0.030469 -0.008868
						CHANNELS 3 Zrotation Yrotation Xrotation
						JOINT LeftForeArm
						{
							OFFSET 0.259612 -0.012772 -0.027456
							CHANNELS 3 Zrotation Yrotation Xrotation
							JOINT LeftHand
							{
								OFFSET 0.249234 0.008986 -0.001171
								CHANNELS 3 Zrotation Yrotation Xrotation
								End Site
								{
									OFFSET 0.000000 0.000000 0.000000
								}
							}
						}
					}
				}
				JOINT RightShoulder
				{
					OFFSET -0.081759 0.118833 -0.038615
					CHANNELS 3 Zrotation Yrotation Xrotation
					JOINT RightArm
					{
						OFFSET -0.096012 0.032551 -0.009143
						CHANNELS 3 Zrotation Yrotation Xrotation
						JOINT RightForeArm
						{
							OFFSET -0.253742 -0.013329 -0.021401
							CHANNELS 3 Zrotation Yrotation Xrotation
							JOINT RightHand
							{
								OFFSET -0.255298 0.007772 -0.005559
								CHANNELS 3 Zrotation Yrotation Xrotation
								End Site
								{
									OFFSET 0.000000 0.000000 0.000000
								}
							}
						}
					}
				}
			}
		}
	}
}
MOTION
Frames: 7
Frame Time: 0.050000
-0.047309 0.955632 1.096217 2.741447 -23.435812 -3.580990 -0.458300 -0.756107 -9.263155 -2.438585 0.510911 5.326760 -2.481951 -1.514664 15.709557 0.000000 0.000000 0.000000 -3.206290 0.736581 -7.568715 8.643188 4.771063 55.864175 0.551696 -11.637874 31.053331 0.000000 0.000000 0.000000 -7.666475 0.479131 7.612619 6.413283 -0.849167 -27.047829 -0.603707 -1.820011 36.913255 -0.226989 -1.409430 -26.957650 0.000000 0.000000 0.000000 -30.912235 8.347972 -0.173039 -44.646475 -15.864033 -4.949829 -16.625126 -26.507145 6.435816 0.000000 0.000000 0.000000 19.365211 3.103440 -4.504286 53.842350 1.310137 -6.987404 14.365203 29.122571 3.491079 0.000000 0.000000 0.000000 
-0.056663 0.961039 1.133209 2.540660 -25.288531 -3.714043 -0.117693 -0.456956 -5.401616 -3.256531 0.656251 3.526817 -1.653919 -0.663681 14.920813 0.000000 0.000000 0.000000 -3.321634 1.127010 -11.413676 10.155066 3.911086 53.095928 -2.684487 -14.174721 20.852196 0.000000 0.000000 0.000000 -6.991033 0.460194 8.293897 6.481718 -0.777863 -27.740092 -1.621522 -3.761698 37.289317 -1.097727 -1.502395 -26.048393 0.000000 0.000000 0.000000 -30.979080 8.137507 1.305501 -43.210169 -18.193683 -4.569903 -16.211562 -28.057889 6.830644 0.000000 0.000000 0.000000 19.593926 3.979526 -5.239841 53.379904 -0.145639 -7.210630 14.499441 29.633964 3.239102 0.000000 0.000000 0.000000 
-0.067372 0.964097 1.167110 1.989214 -27.234195 -3.471571 0.395874 -0.139876 -2.039535 -3.715141 0.723953 1.911066 -0.822209 0.274934 14.084338 0.000000 0.000000 0.000000 -3.255500 1.511885 -14.403985 11.100403 3.003261 48.106330 -3.895515 -13.827457 10.696959 0.000000 0.000000 0.000000 -6.365706 0.427309 8.603039 6.573163 -0.818924 -27.584631 -2.353999 -4.883323 37.204674 -1.490298 -1.667785 -25.991641 0.000000 0.000000 0.000000 -30.696673 7.710970 2.501815 -42.474905 -20.141616 -4.112219 -14.144355 -30.244672 6.889729 0.000000 0.000000 0.000000 20.093477 4.576427 -5.996707 52.914327 -0.816057 -7.040851 14.609717 30.147291 3.048315 0.000000 0.000000 0.000000 
-0.079467 0.965208 1.198341 1.232774 -29.136579 -3.286716 0.749262 0.187983 1.094741 -3.525155 0.678576 0.817691 0.027527 1.314391 13.093643 0.000000 0.000000 0.000000 -2.760122 1.925525 -16.865394 10.789225 2.425957 41.462581 -3.759943 -13.982716 10.642962 0.000000 0.000000 0.000000 -5.228553 0.370360 9.734210 5.933486 -0.724082 -27.724574 -2.403519 -5.780879 36.583445 -2.254963 -1.527843 -25.481477 0.000000 0.000000 0.000000 -30.353758 7.146216 3.573157 -41.917916 -21.580428 -3.685833 -12.186283 -31.143772 6.518532 0.000000 0.000000 0.000000 20.183603 4.593915 -6.782667 52.806294 -1.513726 -7.040495 15.153667 30.685853 2.983207 0.000000 0.000000 0.000000 
-0.092923 0.964086 1.227631 0.678763 -30.712901 -2.975997 0.523838 0.546300 4.186095 -2.642695 0.497240 -0.754339 0.780553 2.330097 12.054935 0.000000 0.000000 0.000000 -2.365703 2.255934 -18.494912 9.041770 1.971722 33.261113 -3.040519 -13.327152 11.076026 0.000000 0.000000 0.000000 -4.994927 0.390547 10.298404 6.643029 -0.736765 -28.309900 -3.268161 -6.425422 36.399422 -2.310469 -1.752304 -24.861580 0.000000 0.000000 0.000000 -30.647953 7.350559 4.092122 -41.297854 -22.535289 -3.550947 -11.033835 -31.983583 6.409608 0.000000 0.000000 0.000000 19.869094 4.309295 -7.462339 53.368653 -1.841943 -7.160663 15.863688 31.505889 2.986448 0.000000 0.000000 0.000000 
-0.107911 0.961447 1.255659 0.249846 -32.362483 -2.288750 0.528178 0.881747 6.551696 -2.345781 0.450948 -1.905230 1.507284 3.423029 11.082816 0.000000 0.000000 0.000000 -1.770139 2.576746 -19.740508 6.068045 1.480799 23.650069 -2.100931 -12.736229 12.266397 0.000000 0.000000 0.000000 -4.470284 0.396242 11.117969 6.344215 -0.516705 -29.414201 -2.979754 -7.060228 36.271819 -2.502364 -1.906918 -25.601662 0.000000 0.000000 0.000000 -30.924268 7.535823 4.585120 -41.008655 -22.837305 -3.566908 -10.687386 -32.817451 6.512155 0.000000 0.000000 0.000000 19.456286 3.823600 -8.130488 53.591962 -2.001344 -7.212481 16.130370 31.817368 2.858058 0.000000 0.000000 0.000000 
-0.124536 0.957563 1.283372 0.096000 -33.553174 -1.985431 0.040193 1.261290 8.842593 -1.515718 0.318145 -2.465942 2.068377 4.375679 10.044930 0.000000 0.000000 0.000000 -1.955175 2.525249 -19.433769 4.353750 0.610206 13.453264 -1.171502 -12.843838 15.025786 0.000000 0.000000 0.000000 -4.228290 0.394828 11.365493 5.910019 -0.410831 -29.638851 -3.140816 -7.243688 35.660506 -2.340325 -2.105333 -25.634389 0.000000 0.000000 0.000000 -30.832122 7.913671 4.547327 -41.261500 -22.676291 -3.559996 -10.512678 -33.131648 6.582982 0.000000 0.000000 0.000000 18.870284 3.628780 -8.278724 54.451347 -2.424630 -7.611958 17.027833 32.592469 2.989927 0.000000 0.000000 0.000000 
